<svg width="51" height="51" viewBox="0 0 51 51" fill="none" xmlns="http://www.w3.org/2000/svg">
<path fill-rule="evenodd" clip-rule="evenodd" d="M34.3751 18.3334C34.3751 20.7646 33.4093 23.0961 31.6902 24.8152C29.9711 26.5343 27.6396 27.5001 25.2084 27.5001C22.7773 27.5001 20.4457 26.5343 18.7266 24.8152C17.0075 23.0961 16.0417 20.7646 16.0417 18.3334C16.0417 15.9023 17.0075 13.5707 18.7266 11.8516C20.4457 10.1325 22.7773 9.16675 25.2084 9.16675C27.6396 9.16675 29.9711 10.1325 31.6902 11.8516C33.4093 13.5707 34.3751 15.9023 34.3751 18.3334ZM29.7917 18.3334C29.7917 19.549 29.3089 20.7148 28.4493 21.5743C27.5898 22.4339 26.424 22.9167 25.2084 22.9167C23.9928 22.9167 22.8271 22.4339 21.9675 21.5743C21.108 20.7148 20.6251 19.549 20.6251 18.3334C20.6251 17.1178 21.108 15.9521 21.9675 15.0925C22.8271 14.233 23.9928 13.7501 25.2084 13.7501C26.424 13.7501 27.5898 14.233 28.4493 15.0925C29.3089 15.9521 29.7917 17.1178 29.7917 18.3334Z" fill="#4877AF"/>
<path fill-rule="evenodd" clip-rule="evenodd" d="M25.2083 0C11.2865 0 0 11.2865 0 25.2083C0 39.1302 11.2865 50.4167 25.2083 50.4167C39.1302 50.4167 50.4167 39.1302 50.4167 25.2083C50.4167 11.2865 39.1302 0 25.2083 0ZM4.58333 25.2083C4.58333 29.9979 6.21729 34.4071 8.95583 37.9087C10.8796 35.3836 13.3608 33.3372 16.2058 31.9292C19.0509 30.5211 22.1829 29.7896 25.3573 29.7917C28.4909 29.788 31.5839 30.5 34.4005 31.8734C37.2171 33.2467 39.6829 35.2451 41.6098 37.7162C43.5954 35.112 44.9323 32.0724 45.51 28.8489C46.0876 25.6253 45.8893 22.3106 44.9315 19.1789C43.9738 16.0472 42.284 13.1887 40.0022 10.8397C37.7203 8.49069 34.9118 6.71884 31.8092 5.67075C28.7066 4.62265 25.399 4.32843 22.1601 4.81244C18.9212 5.29644 15.8441 6.54475 13.1834 8.45408C10.5228 10.3634 8.35498 12.8789 6.85948 15.7923C5.36398 18.7058 4.58375 21.9335 4.58333 25.2083ZM25.2083 45.8333C20.4735 45.841 15.8816 44.2121 12.21 41.2225C13.6877 39.1064 15.6548 37.3787 17.9439 36.1865C20.233 34.9942 22.7763 34.3728 25.3573 34.375C27.906 34.3728 30.4185 34.9787 32.686 36.1426C34.9535 37.3064 36.9106 38.9945 38.3946 41.0667C34.6946 44.1535 30.0269 45.8409 25.2083 45.8333Z" fill="#4877AF"/>
</svg>
